<svg width="250" height="250" viewBox="0 0 250 250" fill="none" xmlns="http://www.w3.org/2000/svg">
<path d="M93.3743 88.1055V76.7474C93.3743 71.9644 97.2427 68.0959 102.026 68.0959H151.722C156.505 68.0959 160.373 71.9644 160.373 76.7474V145.415C160.373 150.198 156.505 154.067 151.722 154.067H127.98C123.197 154.067 119.329 157.935 119.329 162.718V202.725C119.329 207.508 115.46 211.376 110.677 211.376H71.3996C66.6166 211.376 62.7482 207.508 62.7482 202.725V48.0988C62.7482 43.3157 66.6166 39.4473 71.3996 39.4473H180.012C184.795 39.4473 188.664 43.3157 188.664 48.0988V88.1055C188.664 92.8885 184.795 96.7569 180.012 96.7569H102.026C97.2427 96.7569 93.3743 92.8885 93.3743 88.1055Z" stroke="#111827" stroke-width="6.46386" stroke-miterlimit="10"/>
</svg>
